<svg xmlns="http://www.w3.org/2000/svg" viewBox="0 0 512 512" style="enable-background:new 0 0 512 512"
     xml:space="preserve"><path style="fill:#4FFFB0" d="M422.022 187.516c-33.032 33.032-84.323 38.15-105.996 38.767-5.73.163-10.411-4.517-10.248-10.248.617-21.673 5.735-72.964 38.767-105.996s84.323-38.15 105.996-38.767c5.73-.163 10.41 4.517 10.248 10.248-.617 21.673-5.735 72.963-38.767 105.996z"/>
    <path style="opacity:.1;enable-background:new"
          d="M350.369 189.864a8.173 8.173 0 0 1-5.779-13.95l65.83-65.829a8.173 8.173 0 0 1 11.557 11.557l-65.83 65.829a8.147 8.147 0 0 1-5.778 2.393z"/>
    <circle style="fill:#f09d2d" cx="228.328" cy="295.434" r="203.058"/>
    <path style="opacity:.08;enable-background:new"
          d="M429.162 265.366c-3.155-4.713-9.354-6.644-14.724-4.139l-303.985 141.75c-6.197 2.89-8.587 10.421-5.275 16.403 18.285 33.026 45.731 58.253 77.62 73.98a203.71 203.71 0 0 0 45.53 5.129c112.144 0 203.055-90.911 203.055-203.055 0-10.219-.764-20.257-2.221-30.068zM231.476 96.703a199.96 199.96 0 0 0-3.32-4.324c-45.939.038-88.3 15.337-122.307 41.094 5.81 2.175 11.876 3.907 18.193 5.017 44.313 7.783 87.588-16.542 105.019-28.04 4.609-3.041 5.712-9.319 2.415-13.747z"/>
    <path style="fill:#4FFFB0"
          d="M157.648 10.169c40.776 19.015 62.302 63.747 69.999 83.158 2.035 5.132-.659 10.91-5.899 12.65-19.818 6.581-67.922 18.845-108.697-.17s-62.303-63.746-70-83.158c-2.035-5.132.659-10.91 5.899-12.65 19.817-6.58 67.922-18.843 108.698.17z"/>
    <path style="opacity:.1;enable-background:new"
          d="M175.974 85.109a8.141 8.141 0 0 1-3.449-.768l-81.26-37.892a8.172 8.172 0 0 1 6.908-14.812l81.26 37.892a8.172 8.172 0 0 1 3.952 10.86 8.174 8.174 0 0 1-7.411 4.72z"/>
    <path style="fill:#b67749"
          d="M228.328 129.053c-7.221 0-13.075-5.854-13.075-13.075 0-33.609 12.305-60.662 37.618-82.707 5.446-4.743 13.704-4.172 18.448 1.274 4.743 5.446 4.172 13.705-1.274 18.448-19.542 17.017-28.642 37.031-28.642 62.987 0 7.218-5.854 13.073-13.075 13.073z"/>
    <path style="fill:#f09d2d"
          d="M154.84 402.977c-6.197 2.89-8.587 10.421-5.276 16.403 45.364 81.941 147.104 115.911 233.278 75.727 86.175-40.184 125.549-139.956 91.938-227.378-2.454-6.382-9.76-9.392-15.956-6.502L154.84 402.977z"/>
    <path style="opacity:.1;fill:#fff;enable-background:new"
          d="M154.84 402.977c-6.197 2.89-8.587 10.421-5.276 16.403 45.364 81.941 147.104 115.911 233.278 75.727 86.175-40.184 125.549-139.956 91.938-227.378-2.454-6.382-9.76-9.392-15.956-6.502L154.84 402.977z"/>
    <path style="opacity:.3;fill:#fff;enable-background:new"
          d="M167.314 406.952c15.234 28.455 38.121 50.502 64.887 64.78 4.549 2.427 10.192.297 11.955-4.547l38.699-106.327c2.844-7.812-5.178-15.162-12.712-11.649l-98.928 46.132c-4.38 2.042-6.182 7.35-3.901 11.611zm190.725 65.004-43.304-92.867c-2.382-5.109-9.752-4.787-11.679.51l-35.039 96.271c-1.763 4.845 1.192 10.103 6.237 11.167 25.478 5.378 52.445 4.533 78.52-3.407 4.942-1.506 7.449-6.991 5.265-11.674zm35.342-7.262c22.845-14.871 40.825-34.985 53.082-57.96 2.427-4.549.3-10.192-4.546-11.956l-96.271-35.039c-5.297-1.928-10.28 3.511-7.899 8.62l43.304 92.867c2.185 4.682 8 6.287 12.33 3.468zm-49.105-132.476 106.327 38.699c4.844 1.763 10.103-1.191 11.167-6.236 6.267-29.683 4.089-61.386-7.916-91.347-1.798-4.486-7.022-6.517-11.402-4.475l-98.928 46.132c-7.536 3.514-7.061 14.384.752 17.227z"/>
    <path style="fill:#394049"
          d="M137.689 223.466a8.171 8.171 0 0 1-8.172-8.172v-4.216c0-4.514 3.658-8.172 8.172-8.172s8.172 3.658 8.172 8.172v4.216a8.17 8.17 0 0 1-8.172 8.172zM317.402 223.466a8.171 8.171 0 0 1-8.172-8.172v-4.216c0-4.514 3.658-8.172 8.172-8.172s8.172 3.658 8.172 8.172v4.216a8.171 8.171 0 0 1-8.172 8.172zM242.635 245.13c-5.752 0-11.025-2.1-15.09-5.571a23.154 23.154 0 0 1-15.089 5.571c-12.826 0-23.261-10.434-23.261-23.261 0-4.514 3.658-8.172 8.172-8.172s8.172 3.658 8.172 8.172c0 3.814 3.103 6.917 6.917 6.917s6.917-3.103 6.917-6.917a8.171 8.171 0 0 1 8.172-8.172 8.171 8.171 0 0 1 8.172 8.172 6.925 6.925 0 0 0 6.918 6.917 6.925 6.925 0 0 0 6.917-6.917 8.171 8.171 0 0 1 8.172-8.172 8.171 8.171 0 0 1 8.172 8.172c-.001 12.826-10.435 23.261-23.261 23.261z"/>
    <path style="fill:#e6595a"
          d="M150.548 253.741h-25.716c-4.514 0-8.172-3.658-8.172-8.172s3.658-8.172 8.172-8.172h25.716c4.514 0 8.172 3.658 8.172 8.172s-3.658 8.172-8.172 8.172zM330.26 253.741h-25.717c-4.514 0-8.172-3.658-8.172-8.172s3.658-8.172 8.172-8.172h25.717c4.513 0 8.172 3.658 8.172 8.172s-3.659 8.172-8.172 8.172z"/>
    <g style="opacity:.08"><circle cx="60.148" cy="325.856" r="8.155"/>
        <circle cx="103.689" cy="338.343" r="8.155"/>
        <circle cx="72.471" cy="291.926" r="8.155"/>
        <circle cx="91.997" cy="371.107" r="8.155"/>
        <circle cx="148.068" cy="358.413" r="8.155"/></g></svg>